<svg id="edit" preserveAspectRatio="xMinYMin" width = "40px" height = "40px" style="stroke-linejoin: round; stroke-linecap: round" viewBox="130 180 400 450"><path stroke="#ffedf8" stroke-width="7" d="M422,304L422,304L422,304.5L421.67,305L421.25,305.75L421,306.4L420.2,307.8L419.2,309.4L418,311.4L416.4,313.6L414.4,316.4L412.4,319.4L410,322.8L407.8,326.2L405.8,329.8L404,333.4L402.2,337.2L400.6,341L398.8,345L397,349L394.8,353L392.6,357.2L390.2,361.6L387.8,366L385.4,370.4L383.2,374.8L381,379.2L379,383.6L376.8,388.2L374.6,392.6L372.4,397L370.2,401L368,404.6L366,408.2L364,412.4L362,416.6L360,421L358,425.4L356,429.4L354,433L352,436.6L350,440.2L348,444.2L345.8,448.6L343.6,453L341.6,457.2L339.8,461.2L338,464.8L336.6,468.2L335.2,471.6L333.6,475L332,478.4L330.6,481.6L329.2,484.4L328,486.6L327,488.4L326.2,489.8L325.4,490.8L324.8,491.6L324.2,492.2L323.6,492.8L322.8,493.2L322,493.8L321,494.4L319.8,495.4L318.6,496.4L317,497.8L315,499.4L312.8,501L310.6,502.4L308.2,503.8L306,504.8L304,505.6L302.2,506.4L300.4,507.2L298.8,508L297.4,508.8L296.2,509.6L295,510.2L293.8,510.8L292.6,511.2L291.2,511.8L289.4,512.6L287.2,513.8L284.6,515.2L281.6,517L278.6,519L275.8,521L273.4,522.8L271.4,524.4L269.6,526L267.6,527.4L265.6,528.8L263.6,530L261.8,531.2L259.6,532.4L257.8,533.4L256.2,534.2L254.6,535L253,535.8L252,536.4L251,537L250,537.6L249,538.2L248,538.8L247,539.2L246.2,539.8L245.4,540.2L244.6,540.8L243.8,541.2L243.2,541.4L242.4,541.4L241.8,541.2L241.4,540.6L241.2,539.8L241,539L241,538L241,536.8L241,535.6L241,534.2L241,532.8L241,531.4L241,530.2L241,528.8L241,527.6L241,526.4L241,525.2L241,524L241,522.8L241,521.4L241,519.8L241,518.2L241,516.6L241,515L241,513.2L241,511.4L241,509.4L241,507.4L241,505.6L241,504L241,502.4L241,500.8L241,499.2L241,497.6L241,496.2L241,494.8L241,493.4L241,492L241,490.4L241,488.8L241,487.2L241,485.6L241,483.8L241,482L241.2,479.8L241.4,477.4L241.6,474.8L241.8,472.4L242.2,470.2L242.4,468.2L242.6,466.4L242.8,464.8L243,462.8L243,460.8L243,458.8L243,457L243,455.4L243,454.2L243,453L243,452L243,451L243.2,450.4L243.4,449.8L243.6,449.2L243.8,448.6L244.2,447.6L244.6,446L245.2,444.4L246,442.8L247,440.8L248,439L249,437.2L250,435.2L251.2,432.8L252.4,430.6L253.4,428.4L254.4,426.4L255.4,424.6L256.2,422.8L257,421L258,419L258.8,417L259.6,414.8L260.4,412.8L261.2,410.6L262,408.6L263,406.4L264.2,404.4L265.4,402.4L266.8,400.4L268.2,398.4L269.6,396.2L270.6,394L271.6,391.8L272.4,389.6L273.4,387.2L274.4,385L275.6,382.8L276.8,380.6L277.8,378.6L278.8,376.8L279.8,375L280.8,373L281.8,370.8L283,368.4L284.2,365.8L285.4,363L286.8,360.2L288.2,357.6L289.4,355.2L290.4,353L291.4,351L292.2,349L293,346.8L294,344.4L295,342L296,339.6L297.2,337L298.4,334.6L299.6,332.4L300.6,330.4L301.6,328.6L302.4,327L303.2,325.2L304.2,323.4L305.4,321.6L306.6,319.6L307.8,317.4L309,315.4L310,313.6L311,311.8L311.8,310L312.6,308.6L313.2,307.4L313.8,306L314.4,304.4L315,302.8L315.6,301L316.4,299.2L317.2,297.6L317.8,296L318.6,294.6L319.6,293.2L320.6,291.6L321.6,289.6L322.8,287.6L324.2,285.4L325.4,283.2L326.8,281L328.2,278.8L329.8,276.6L331,274.6L332.2,272.8L333,271.2L333.8,270L334.4,268.8L335.2,267.6L335.8,266.4L336.6,265.2L337.4,264.2L338,263.4L338.6,262.6L339.4,261.8L340.2,260.8L340.8,259.6L341.6,258.6L342.2,257.6L342.8,256.8L343.4,256.4L344,256.4L344.4,256.6L345,257L345.4,257.6L345.8,258.4L346.4,259.2L347.2,260L348,260.8L349.2,261.6L350.4,262.4L351.8,263L353.2,263.6L354.8,264.2L356.2,264.8L357.6,265.4L358.8,266L360,266.6L361.2,267.4L362.4,268L363.8,268.6L365.4,269.4L367.2,270.2L369,271L371,271.8L373,272.8L375,274L377,275.2L378.8,276.6L380.6,278.2L382.4,279.6L384.2,281L386,282.4L387.8,283.6L389.6,284.8L391.4,286L393,287L394.6,288L396.4,289L398.2,290L399.8,291L401.6,292L403.2,293L404.8,293.8L406.2,294.6L407.6,295.2L409,295.8L410.6,296.2L412,296.8L413.4,297.2L414.8,297.6L416,298L417,298.4L418,298.6L418.8,299L419.8,299.4L420.6,299.8L421.4,300.2L422,300.4L422.4,300.4L422.4,300.2L422.2,299.4L421.4,298.4L420.4,297.4L419.2,296.2L417.6,295L416,294.2L414.4,293.4L412.6,292.6L410.8,291.8L409.2,291L407.6,290L406.2,289L405,288.2L404.2,287.4L403.4,286.8L402.6,286.4L401.8,286L401,285.6L400,285.2L398.8,284.6L397.4,283.8L395.8,283.2L394,282.4L392,281.4L390.2,280.4L388.4,279.2L386.8,278L385.4,277L384.2,276.2L383,275.4L382,274.8L381,274L379.8,273L378.6,272.2L377.4,271.6L376,271L374.4,270.2L372.8,269.4L371,268.6L369.2,267.6L367.6,266.8L366,266L364.6,265.4L363.4,264.8L362.2,264.2L361,263.4L360,263L359,262.4L358,261.8L357,261.4L356,261L355,260.6L354,260.2L353,259.8L352,259.2L351,258.8L350,258.4L349,258.2L347.8,257.8L346.6,257.6L345.6,257.6L344.4,257.6L343.2,257.8L342,258.4L340.8,259L339.6,259.6L338.8,260L338.2,260" fill="none"></path><path stroke="#ffedf8" stroke-width="7" d="M272,523L272,523L272,522.5L271.67,522.33L271.25,522L270.8,521.8L270,521.2L269,520.8L268,520.4L267,520L265.8,519.6L264.4,519.4L262.8,519.4L261.2,519.4L259.6,519.6L258.2,519.8L257.2,519.8L256.4,519.6L255.6,519.4L255,519L254.4,518.6L253.8,518.2L253.2,517.8L252.8,517.2L252.2,516.8L251.8,516.2L251.2,515.6L250.8,514.8L250.2,514.2L249.8,513.4L249.2,512.6L248.6,511.8L247.8,511L247.2,510L246.4,509.2L245.8,508.4L245.2,507.8L244.8,507.2L244.2,506.8L243.8,506.2L243.2,505.8L242.8,505.2L242.2,504.6L241.6,503.8" fill="none"></path>
  
</svg>
